<svg width="64" height="64" viewBox="0 0 24 24" fill="none" xmlns="http://www.w3.org/2000/svg">
<rect width="24" height="24" fill="white"/>
<rect x="5" y="2" width="14" height="20" rx="2" stroke="#000000" stroke-width="1.5" stroke-linecap="round" stroke-linejoin="round"/>
<path d="M12 18H12.01" stroke="#000000" stroke-width="1.5" stroke-linecap="round" stroke-linejoin="round"/>
<path d="M9 4H15" stroke="#000000" stroke-width="1.5" stroke-linecap="round" stroke-linejoin="round"/>
<path d="M8 10C8 8.11438 9.19316 6.55986 10.7788 6.00216C12.3645 5.44446 14.1802 6.04618 15.0132 7.42085C15.8462 8.79552 15.4248 10.6657 14.2888 11.7589L12.5 13.5L12.5 13.5C12.1882 13.8299 11.8118 13.8299 11.5 13.5L9.71122 11.7589C8.57523 10.6657 8.15383 8.79552 8.98684 7.42085C9.81985 6.04618 11.6355 5.44446 13.2212 6.00216C14.8068 6.55986 16 8.11438 16 10" stroke="#000000" stroke-width="1.5" stroke-linecap="round" stroke-linejoin="round"/>
</svg>